<svg xmlns="http://www.w3.org/2000/svg">
  <symbol id="faces" viewBox="0 0 100 100">
    <path d="M24.6 38.2v36.2h36.2V38.2zM63.5 38v35.8L76.7 65V29.3zM25.9 35.4h35.5L74 27h-35z"/>
  </symbol>
  <symbol id="edges" viewBox="0 0 100 100">
    <path d="M22.1 35.8v41h41l15-10v-41h-41zm16-9H76l-13.5 9H38zm-1 .2v8.8H24zm40 .2v38.6h-14V36.5zm-54 9.6h14V66l-14 9.3zm15 0h24v29h-24zm-.3 30H62v9H24.3zm25.3 0h13.2l-13.2 8.8z"/>
  </symbol>
  <symbol id="seams" viewBox="0 0 100 100">
    <path d="M75 22.4L22.8 31 24 81.6l51.7-8zm-1 1.2l.8 48.1-2-1.5-1 1.2 2 1.4L25 80.5l-1.4-47.7 2.5 2 1-1.2-2.5-2zM30.8 36.4l-1 1.2 3.6 2.8.9-1.2zm7 5.7l-1 1.1 3.6 2.8 1-1.1zm7 5.6l-.9 1.2 3.5 2.8 1-1.2zm7 5.6l-.9 1.2 3.5 2.8 1-1.2zm7 5.6l-.9 1.2 3.6 2.8.9-1.1zm7.1 5.7l-1 1.1 3.6 2.8 1-1.1z"/>
  </symbol>
  <symbol id="seams2o" viewBox="0 0 100 100">
    <g stroke="#fcfcff" fill="none">
      <path d="M75 23l-51 8L25 81l51-8z" />
      <path d="M24 31l52 42" stroke-width="1.5" stroke-dasharray="4.5,4.5"/>
    </g>
  </symbol>
  <symbol id="bounds" viewBox="0 0 100 100">
    <path d="M22.7 30L24 81.6l52.7-8.2-4-3.2-1 1.2 2 1.4L25 80.5l-1.4-47.7 2.5 2 1-1.2zm8 6.4l-1 1.2 3.6 2.8.9-1.2zm7 5.7l-1 1.1 3.6 2.8 1-1.1zm7 5.6l-.9 1.2 3.5 2.8 1-1.2zm7 5.6l-.9 1.2 3.5 2.8 1-1.2zm7 5.6l-.9 1.2 3.6 2.8.9-1.1zm7.1 5.7l-1 1.1 3.6 2.8 1-1.1z"/>
  </symbol>
  <symbol id="gaps" viewBox="0 0 100 100">
    <path d="M80.3 16l-53.4 8.7 3.6 3 1-1.2-1.6-1.3 49.4-8 .6 48.1-2.8-2.3-1 1.2 4.9 3.9-.7-52.1zM34.9 29.3l-.9 1.1 3.5 2.9 1-1.2-3.6-2.8zm-13.6 1.3l1.4 51.7L75.4 74l-4.9-4-1 1.2 2.8 2.3L23.7 81l-1.4-47.7 1.6 1.2 1-1.1-3.6-2.9zM42 35L41 36l3.5 2.8 1-1.2L42 35zm-13.6 1.4l-1 1.2 3.5 2.8 1-1.2-3.5-2.8zM49 40.5l-1 1.2 3.6 2.8.9-1.2-3.5-2.8zM35.4 42l-1 1.2 3.6 2.8.9-1.2-3.5-2.8zM56 46.2l-1 1.1 3.6 2.8 1-1.1-3.6-2.8zm-13.6 1.3l-1 1.2 3.6 2.8 1-1.1-3.6-2.9zM63 51.8l-.9 1.1 3.5 2.9 1-1.2-3.6-2.8zm-13.6 1.4l-1 1.1 3.6 2.9 1-1.2-3.6-2.8zm20.7 4.2l-1 1.2 3.5 2.8 1-1.2-3.5-2.8zm-13.7 1.4l-.9 1.2 3.5 2.8 1-1.2-3.6-2.8zm7 5.6l-.9 1.2 3.5 2.8 1-1.2-3.5-2.8z"/>
  </symbol>
  <symbol id="folds" viewBox="0 0 100 100">
    <path d="M63 16.3l-13.8 8.8L16 27l21.3 56.3 46.2-8.6zm-1.3 2L39.4 76.7 49.8 26zm1 .2L82.2 74 38.4 82zm-14 7.6L37.5 81l-20-53.1z"/>
  </symbol>
  <symbol id="square" viewBox="0 0 100 100">
    <path d="M0 0h100v100H0z"/>
  </symbol>
  <symbol id="folder" viewBox="0 0 20 20">
    <path d="M3.125 4C2.516 4 2 4.512 2 5.125v9.75C2 15.487 2.512 16 3.125 16h13.75c.612 0 1.125-.513 1.125-1.125v-7.75C18 6.513 17.487 6 16.875 6H10L8 4zm.125 3.25h13.5v7.5H3.25z"/>
  </symbol>
  <symbol id="folder2" viewBox="0 0 20 20">
    <path d="M11 7L8 4H3L2 5v2z"/>
    <rect width="14.8" height="8.8" x="2.6" y="6.6" ry=".5" fill="none" stroke="#fcfcff" stroke-width="1.3" stroke-linejoin="round" stroke-dashoffset="4.5"/>
  </symbol>
  <symbol id="arrow-right" viewBox="0 0 20 20">
    <path d="M8 6v8l5-4z"/>
  </symbol>
  <symbol id="arrow-down" viewBox="0 0 20 20">
    <path d="M6 8h8l-4 6z"/>
  </symbol>
  <symbol id="faces2" viewBox="0 0 40 40">
    <path d="M15.25 11l-5 4h14l5-4h-14zm14.75.75l-5 4v14l5-4v-14zM10 16v14h14V16H10z"/>
  </symbol>
  <symbol id="edges2" viewBox="0 0 40 40">
    <path d="M15.318 10L9 15.266V31h15.682L31 25.734V10zM16 11h13.118l-4.8 4H16zm-1 .568V15h-4.119zm15 0V25h-5v-9.265zM10 16h5v9.265l-5 4.167zm6 0h8v9h-8zm-.318 10H24v4H10.882zM25 26h4.12L25 29.432z"/>
  </symbol>
  <symbol id="seams2" viewBox="0 0 40 40">
    <path d="M30 6.89l-21 4.2v22.02l21-4.2zm-1 1.22v19.307l-.889-.755-.648.762.926.788-18.39 3.679V12.58l.7.595.649-.762-.737-.626zm-16.129 5.6l-.646.761 1.523 1.297.646-.762zm3.049 2.59l-.649.763 1.524 1.295.648-.762zm3.047 2.59l-.647.763 1.524 1.294.646-.762zm3.049 2.59l-.649.764 1.524 1.295.648-.762zm3.047 2.592l-.649.762 1.526 1.295.646-.762z"/>
  </symbol>
  <symbol id="seams3" viewBox="0 0 40 40">
    <path d="M30 7.914l-20 3.158v21.014l20-3.158V7.914zm-1 1.172v18.986l-18 2.842V11.928l18-2.842zm-16.863 3.209l-.666.744 1.49 1.334.668-.746-1.492-1.332zm2.982 2.666l-.668.746 1.49 1.334.668-.746-1.49-1.334zm2.98 2.668l-.665.744 1.49 1.334.666-.744-1.49-1.334zm2.98 2.666l-.665.746 1.49 1.334.666-.746-1.49-1.334zm2.982 2.668l-.667.746 1.49 1.332.669-.744-1.492-1.334zm2.982 2.668l-.668.744 1.49 1.334.668-.746-1.49-1.332z"/>
  </symbol>
  <symbol id="seams4" viewBox="0 0 40 40">
    <path d="M6.64 9l.425.746L20 32.512 33.36 9H6.64zm1.72 1h23.28L20 30.488 8.36 10zm11.14.5v2h1v-2h-1zm0 4v2h1v-2h-1zm0 4v2h1v-2h-1zm0 4v2h1v-2h-1zm0 4v2h1v-2h-1z"/>
  </symbol>
  <symbol id="bounds2" viewBox="0 0 40 40">
    <path d="M11 8.53v21.556l20.747-3.276-.973-.86L12 28.914v-19.5l-1-.885zm2.094 1.828l-.662.75 1.5 1.322.662-.75-1.5-1.322zm2.998 2.646l-.66.75 1.5 1.322.66-.75-1.5-1.322zm3 2.646l-.662.75 1.5 1.322.662-.75-1.5-1.322zm3 2.647l-.662.75 1.5 1.322.662-.75-1.5-1.322zm2.998 2.646l-.66.75 1.5 1.323.66-.75-1.5-1.323zm3 2.647l-.662.75 1.5 1.322.662-.75-1.5-1.322z"/>
  </symbol>
  <symbol id="gaps2" viewBox="0 0 40 40">
    <path d="M31 5.914L10.253 9.19l.973.86L30 7.086v19.5l1 .885V5.914zm-17.906 4.444l-.662.75 1.5 1.322.662-.75-1.5-1.322zM8 11.529v21.557l20.747-3.276-.974-.86L9 31.914v-19.5l-1-.885zm8.094 1.475l-.662.75 1.5 1.322.66-.75-1.498-1.322zm-6 .353l-.663.75 1.5 1.323.663-.75-1.5-1.323zm8.998 2.293l-.66.75 1.498 1.322.662-.75-1.5-1.322zm-6 .354l-.66.75 1.5 1.322.66-.75-1.5-1.322zm9 2.293l-.662.75 1.5 1.322.662-.75-1.5-1.322zm-6 .354l-.662.75 1.5 1.322.662-.75-1.5-1.322zm9 2.292l-.662.75 1.5 1.323.66-.75-1.498-1.323zm-6 .354l-.662.75 1.5 1.322.662-.75-1.5-1.322zm8.998 2.293l-.66.75 1.498 1.322.662-.75-1.5-1.322zm-6 .353l-.66.75 1.5 1.322.66-.75-1.5-1.322zm3 2.647l-.662.75 1.5 1.322.662-.75-1.5-1.322z"/>
  </symbol>
  <symbol id="folds2" viewBox="0 0 40 40">
    <path d="M13.177 6.78L6.863 29.931l18.982 2.109.13-.383L33.193 10H19.617zm.645 1.44l11.256 22.73L8.137 29.07zM19.638 11h12.169l-6.654 19.959z"/>
  </symbol>
</svg>
