<svg xmlns="http://www.w3.org/2000/svg">
  <symbol id="faces" viewBox="0 0 100 100">
    <path d="M24.6 38.2v36.2h36.2V38.2zM63.5 38v35.8L76.7 65V29.3zM25.9 35.4h35.5L74 27h-35z"/>
  </symbol>
  <symbol id="edges" viewBox="0 0 100 100">
    <path d="M22.1 35.8v41h41l15-10v-41h-41zm16-9H76l-13.5 9H38zm-1 .2v8.8H24zm40 .2v38.6h-14V36.5zm-54 9.6h14V66l-14 9.3zm15 0h24v29h-24zm-.3 30H62v9H24.3zm25.3 0h13.2l-13.2 8.8z"/>
  </symbol>
  <symbol id="seams" viewBox="0 0 100 100">
    <path d="M75 22.4L22.8 31 24 81.6l51.7-8zm-1 1.2l.8 48.1-2-1.5-1 1.2 2 1.4L25 80.5l-1.4-47.7 2.5 2 1-1.2-2.5-2zM30.8 36.4l-1 1.2 3.6 2.8.9-1.2zm7 5.7l-1 1.1 3.6 2.8 1-1.1zm7 5.6l-.9 1.2 3.5 2.8 1-1.2zm7 5.6l-.9 1.2 3.5 2.8 1-1.2zm7 5.6l-.9 1.2 3.6 2.8.9-1.1zm7.1 5.7l-1 1.1 3.6 2.8 1-1.1z"/>
  </symbol>
  <symbol id="bounds" viewBox="0 0 100 100">
    <path d="M22.7 30L24 81.6l52.7-8.2-4-3.2-1 1.2 2 1.4L25 80.5l-1.4-47.7 2.5 2 1-1.2zm8 6.4l-1 1.2 3.6 2.8.9-1.2zm7 5.7l-1 1.1 3.6 2.8 1-1.1zm7 5.6l-.9 1.2 3.5 2.8 1-1.2zm7 5.6l-.9 1.2 3.5 2.8 1-1.2zm7 5.6l-.9 1.2 3.6 2.8.9-1.1zm7.1 5.7l-1 1.1 3.6 2.8 1-1.1z"/>
  </symbol>
  <symbol id="gaps" viewBox="0 0 100 100">
    <path d="M80.3 16l-53.4 8.7 3.6 3 1-1.2-1.6-1.3 49.4-8 .6 48.1-2.8-2.3-1 1.2 4.9 3.9-.7-52.1zM34.9 29.3l-.9 1.1 3.5 2.9 1-1.2-3.6-2.8zm-13.6 1.3l1.4 51.7L75.4 74l-4.9-4-1 1.2 2.8 2.3L23.7 81l-1.4-47.7 1.6 1.2 1-1.1-3.6-2.9zM42 35L41 36l3.5 2.8 1-1.2L42 35zm-13.6 1.4l-1 1.2 3.5 2.8 1-1.2-3.5-2.8zM49 40.5l-1 1.2 3.6 2.8.9-1.2-3.5-2.8zM35.4 42l-1 1.2 3.6 2.8.9-1.2-3.5-2.8zM56 46.2l-1 1.1 3.6 2.8 1-1.1-3.6-2.8zm-13.6 1.3l-1 1.2 3.6 2.8 1-1.1-3.6-2.9zM63 51.8l-.9 1.1 3.5 2.9 1-1.2-3.6-2.8zm-13.6 1.4l-1 1.1 3.6 2.9 1-1.2-3.6-2.8zm20.7 4.2l-1 1.2 3.5 2.8 1-1.2-3.5-2.8zm-13.7 1.4l-.9 1.2 3.5 2.8 1-1.2-3.6-2.8zm7 5.6l-.9 1.2 3.5 2.8 1-1.2-3.5-2.8z"/>
  </symbol>
  <symbol id="folds" viewBox="0 0 100 100">
    <path d="M63 16.3l-13.8 8.8L16 27l21.3 56.3 46.2-8.6zm-1.3 2L39.4 76.7 49.8 26zm1 .2L82.2 74 38.4 82zm-14 7.6L37.5 81l-20-53.1z"/>
  </symbol>
</svg>
