<svg xmlns="http://www.w3.org/2000/svg">
  <symbol id="folder" viewBox="0 0 20 20">
    <path d="M3.125 4C2.516 4 2 4.512 2 5.125v9.75C2 15.487 2.512 16 3.125 16h13.75c.612 0 1.125-.513 1.125-1.125v-7.75C18 6.513 17.487 6 16.875 6H10L8 4zm.125 3.25h13.5v7.5H3.25z"/>
  </symbol>
  <symbol id="file" viewBox="0 0 20 20">
    <path d="M5 2c-.545 0-1 .454-1 1v14c0 .545.455 1 1 1h10c.545 0 1-.455 1-1V6.5L11.5 2H5zm0 1h6v4h4v10H5V3z"/>
  </symbol>
  <symbol id="arrow-right" viewBox="0 0 20 20">
    <path d="M8 6v8l5-4z"/>
  </symbol>
  <symbol id="arrow-down" viewBox="0 0 20 20">
    <path d="M6 8h8l-4 5z"/>
  </symbol>
  <symbol id="browse" viewBox="0 0 40 40">
    <path d="M9 10c-.5 0-1 .5-1 1v15.5c0 .823.678 1.5 1.5 1.5h21c.822 0 1.5-.677 1.5-1.5v-13c0-.822-.678-1.5-1.5-1.5H18l-2-2zm.5 3h21c.286 0 .5.214.5.5v13c0 .286-.214.5-.5.5h-21a.488.488 0 0 1-.5-.5v-13c0-.286.215-.5.5-.5z"/>
  </symbol>
  <symbol id="download" viewBox="0 0 40 40">
    <path d="M16 9v9h-5.207L20 27.207 29.207 18H24V9zm1 1h6v9h3.793L20 25.793 13.207 19H17zm-6 18v1h18v-1z"/>
  </symbol>
  <symbol id="faces" viewBox="0 0 40 40">
    <path d="M15.25 11l-5 4h14l5-4h-14zm14.75.75l-5 4v14l5-4v-14zM10 16v14h14V16H10z"/>
  </symbol>
  <symbol id="edges" viewBox="0 0 40 40">
    <path d="M15.318 10L9 15.266V31h15.682L31 25.734V10zM16 11h13.118l-4.8 4H16zm-1 .568V15h-4.119zm15 0V25h-5v-9.265zM10 16h5v9.265l-5 4.167zm6 0h8v9h-8zm-.318 10H24v4H10.882zM25 26h4.12L25 29.432z"/>
  </symbol>
  <symbol id="seams" viewBox="0 0 40 40">
    <path d="M30 7.914l-20 3.158v21.014l20-3.158V7.914zm-1 1.172v18.986l-18 2.842V11.928l18-2.842zm-16.863 3.209l-.666.744 1.49 1.334.668-.746-1.492-1.332zm2.982 2.666l-.668.746 1.49 1.334.668-.746-1.49-1.334zm2.98 2.668l-.665.744 1.49 1.334.666-.744-1.49-1.334zm2.98 2.666l-.665.746 1.49 1.334.666-.746-1.49-1.334zm2.982 2.668l-.667.746 1.49 1.332.669-.744-1.492-1.334zm2.982 2.668l-.668.744 1.49 1.334.668-.746-1.49-1.332z"/>
  </symbol>
  <symbol id="bounds" viewBox="0 0 40 40">
    <path d="M11 8.53v21.556l20.747-3.276-.973-.86L12 28.914v-19.5l-1-.885zm2.094 1.828l-.662.75 1.5 1.322.662-.75-1.5-1.322zm2.998 2.646l-.66.75 1.5 1.322.66-.75-1.5-1.322zm3 2.646l-.662.75 1.5 1.322.662-.75-1.5-1.322zm3 2.647l-.662.75 1.5 1.322.662-.75-1.5-1.322zm2.998 2.646l-.66.75 1.5 1.323.66-.75-1.5-1.323zm3 2.647l-.662.75 1.5 1.322.662-.75-1.5-1.322z"/>
  </symbol>
  <symbol id="gaps" viewBox="0 0 40 40">
    <path d="M31 5.914L10.253 9.19l.973.86L30 7.086v19.5l1 .885V5.914zm-17.906 4.444l-.662.75 1.5 1.322.662-.75-1.5-1.322zM8 11.529v21.557l20.747-3.276-.974-.86L9 31.914v-19.5l-1-.885zm8.094 1.475l-.662.75 1.5 1.322.66-.75-1.498-1.322zm-6 .353l-.663.75 1.5 1.323.663-.75-1.5-1.323zm8.998 2.293l-.66.75 1.498 1.322.662-.75-1.5-1.322zm-6 .354l-.66.75 1.5 1.322.66-.75-1.5-1.322zm9 2.293l-.662.75 1.5 1.322.662-.75-1.5-1.322zm-6 .354l-.662.75 1.5 1.322.662-.75-1.5-1.322zm9 2.292l-.662.75 1.5 1.323.66-.75-1.498-1.323zm-6 .354l-.662.75 1.5 1.322.662-.75-1.5-1.322zm8.998 2.293l-.66.75 1.498 1.322.662-.75-1.5-1.322zm-6 .353l-.66.75 1.5 1.322.66-.75-1.5-1.322zm3 2.647l-.662.75 1.5 1.322.662-.75-1.5-1.322z"/>
  </symbol>
  <symbol id="folds" viewBox="0 0 40 40">
    <path d="M13.177 6.78L6.863 29.931l18.982 2.109.13-.383L33.193 10H19.617zm.645 1.44l11.256 22.73L8.137 29.07zM19.638 11h12.169l-6.654 19.959z"/>
  </symbol>
  <symbol id="xray" viewBox="0 0 40 40">
    <path d="M14 8v6H8v18h18v-6h6V8zm1 1h16v16h-5V14H15zm-6 6h16v16H9zm5 1v2h1v-2zm0 4v2h1v-2zm0 4v2h2v-1h-1v-1zm4 1v1h2v-1zm4 0v1h2v-1z"/>
  </symbol>
  <symbol id="camera-home" viewBox="0 0 40 40">
    <path d="M14.75 8.5c-2.203 0-4 1.797-4 4 0 1.503.836 2.816 2.067 3.5H11.34A1.35 1.35 0 0 0 10 17.34v8.318c0 .104.015.205.038.303L7 29h2v4h3v-3h2v3h3v-4h2l-2-2h8.659A1.35 1.35 0 0 0 27 25.66v-1.525l7 4.041V14.824l-.75.433L27 18.865v-1.524A1.35 1.35 0 0 0 25.66 16h-1.475a4.006 4.006 0 0 0 2.066-3.5c0-2.203-1.797-4-4-4a4.01 4.01 0 0 0-3.75 2.61 4.01 4.01 0 0 0-3.75-2.61zm0 1c1.663 0 3 1.337 3 3s-1.337 3-3 3-3-1.337-3-3 1.337-3 3-3zm7.5 0c1.663 0 3 1.337 3 3s-1.337 3-3 3-3-1.337-3-3 1.337-3 3-3zm-3.75 4.39c.335.9.986 1.648 1.817 2.11h-3.634a4.03 4.03 0 0 0 1.817-2.11zM33 16.556v9.887l-7-4.041v3.257a.33.33 0 0 1-.341.341H16l-3-3-2 2v-7.659a.33.33 0 0 1 .341-.341H25.66a.33.33 0 0 1 .341.341v3.256l7-4.04z"/>
  </symbol>
</svg>
